<svg xmlns="http://www.w3.org/2000/svg" viewBox="0 0 90.244 101.145"><defs><style>.a{fill:none;stroke:#fff;stroke-linecap:square;stroke-miterlimit:10;stroke-width:2.632px;}</style></defs><g transform="translate(-1294.684 -2589.684)"><g transform="translate(0 23.856)"><g transform="translate(1294.7 2565.844)"><rect class="a" width="73.077" height="28.464" transform="translate(8.567 1.3)"/><line class="a" x2="73.077" y2="0.404" transform="translate(8.567 44.702)"/><line class="a" y1="2.422" transform="translate(8.567 47.73)"/><line class="a" y1="5.047" transform="translate(81.644 45.106)"/><line class="a" y1="3.432" transform="translate(45.106 46.721)"/><line class="a" y1="3.432" transform="translate(45.106 31.984)"/><line class="a" y1="10.901" transform="translate(45.106 74.377)"/><line class="a" y1="10.901" transform="translate(81.644 74.377)"/><rect class="a" width="14.535" height="14.535" transform="translate(1.3 59.842)"/><path class="a" d="M26.667,57.435h0A7.237,7.237,0,0,1,19.4,50.167h0A7.237,7.237,0,0,1,26.667,42.9h0a7.237,7.237,0,0,1,7.267,7.267h0A7.237,7.237,0,0,1,26.667,57.435Z" transform="translate(18.438 42.378)"/><path class="a" d="M44.767,57.435h0A7.237,7.237,0,0,1,37.5,50.167h0A7.237,7.237,0,0,1,44.767,42.9h0a7.237,7.237,0,0,1,7.267,7.267h0A7.237,7.237,0,0,1,44.767,57.435Z" transform="translate(36.877 42.378)"/><rect class="a" width="51.073" height="14.535" transform="translate(37.838 59.842)"/><line class="a" x2="11.708" transform="translate(16.238 67.11)"/></g></g></g></svg>