<svg xmlns="http://www.w3.org/2000/svg" viewBox="0 0 82 82"><defs><style>.a{fill:#484751;}</style></defs><g transform="translate(-726 -1323)"><path class="a" d="M0,41A41,41,0,1,0,41,0,41,41,0,0,0,0,41Zm3.159,0A37.764,37.764,0,0,1,6.437,25.6l18.05,49.453A37.839,37.839,0,0,1,3.159,41ZM41,78.84A37.881,37.881,0,0,1,30.309,77.3L41.666,44.315,53.3,76.177a3.418,3.418,0,0,0,.267.515A37.638,37.638,0,0,1,41,78.84ZM71.581,40.29a35.741,35.741,0,0,0,2.881-13.552,28.154,28.154,0,0,0-.262-3.893A37.849,37.849,0,0,1,60.025,73.7ZM63.422,28.654A19.954,19.954,0,0,1,66.544,39.09q0,4.861-2.88,12.235L59.888,63.931,46.212,23.261c2.283-.124,4.33-.361,4.33-.361a1.565,1.565,0,0,0-.238-3.121s-6.131.484-10.088.484c-3.719,0-9.964-.484-9.964-.484-2.04-.112-2.277,3-.243,3.121,0,0,1.934.237,3.974.361l5.89,16.153L31.6,64.243,17.813,23.261c2.283-.124,4.335-.361,4.335-.361a1.566,1.566,0,0,0-.243-3.121s-6.126.484-10.088.484c-.709,0-1.543-.019-2.432-.044A37.82,37.82,0,0,1,66.55,13.1c-.162-.013-.324-.032-.486-.032a6.546,6.546,0,0,0-6.356,6.712C59.709,22.9,61.506,25.539,63.422,28.654Z" transform="translate(726 1323)"/></g></svg>